Coordinates
version=1
nRows=60
nColumns=12
inDegrees=yes

Units are S.I. units (second, meters, Newtons, ...)
Angles are in degrees

endheader
time	SC_y	SC_z	SC_x	AC_y	AC_z	AC_x	GH_y	GH_z	GH_yy	EL_x	PS_y
       0.0              -23.64          32.88          18.19          50.29          2.571         -6.926          21.34          45.39          108.9          63.85          15.56
   0.01819              -23.64          32.88          18.19          50.29          2.568         -6.923          21.31          45.39          108.9          63.84          15.57
   0.03638              -23.64          32.87          18.19          50.29          2.564          -6.92          21.29          45.39          109.0          63.83          15.58
   0.05457              -23.64          32.87          18.19          50.29          2.561         -6.916          21.26          45.39          109.0          63.82          15.59
   0.07276              -23.64          32.87          18.19          50.28          2.557         -6.913          21.23          45.39          109.0          63.81           15.6
   0.09095              -23.64          32.87          18.18          50.28          2.554         -6.909           21.2          45.38          109.0           63.8          15.61
    0.1091              -23.64          32.87          18.18          50.27          2.549         -6.904          21.17          45.38          109.0          63.79          15.63
    0.1273              -23.64          32.87          18.18          50.27          2.545           -6.9          21.13          45.38          109.0          63.78          15.64
    0.1455              -23.64          32.86          18.18          50.27           2.54         -6.895           21.1          45.38          109.0          63.76          15.65
    0.1637              -23.65          32.86          18.18          50.26          2.535          -6.89          21.06          45.38          109.0          63.75          15.67
    0.1819              -23.65          32.86          18.17          50.26           2.53         -6.884          21.01          45.37          109.0          63.73          15.68
    0.2001              -23.65          32.86          18.17          50.25          2.524         -6.878          20.97          45.37          109.0          63.72           15.7
    0.2183              -23.65          32.85          18.17          50.24          2.518         -6.871          20.92          45.37          109.0           63.7          15.72
    0.2365              -23.65          32.85          18.17          50.24          2.511         -6.864          20.86          45.36          109.0          63.68          15.74
    0.2547              -23.66          32.85          18.16          50.23          2.503         -6.857           20.8          45.36          109.0          63.66          15.76
    0.2728              -23.66          32.84          18.16          50.22          2.495         -6.848          20.74          45.36          109.0          63.63          15.79
     0.291              -23.66          32.84          18.16          50.21          2.487         -6.839          20.67          45.35          109.1          63.61          15.81
    0.3092              -23.67          32.83          18.15          50.21          2.477          -6.83           20.6          45.35          109.1          63.58          15.84
    0.3274              -23.67          32.83          18.15           50.2          2.467         -6.819          20.51          45.34          109.1          63.55          15.87
    0.3456              -23.67          32.82          18.14          50.18          2.456         -6.807          20.42          45.34          109.1          63.52          15.91
    0.3638              -23.68          32.82          18.14          50.17          2.443         -6.794          20.33          45.33          109.1          63.49          15.94
     0.382              -23.68          32.81          18.13          50.16           2.43          -6.78          20.22          45.32          109.1          63.45          15.99
    0.4002              -23.69           32.8          18.13          50.15          2.414         -6.764           20.1          45.32          109.1           63.4          16.03
    0.4184              -23.69          32.79          18.12          50.13          2.398         -6.747          19.96          45.31          109.2          63.36          16.08
    0.4366               -23.7          32.79          18.11          50.11          2.379         -6.728          19.82           45.3          109.2           63.3          16.14
    0.4547               -23.7          32.78           18.1          50.09          2.358         -6.706          19.65          45.29          109.2          63.24           16.2
    0.4729              -23.71          32.76          18.09          50.07          2.335         -6.682          19.47          45.28          109.3          63.18          16.27
    0.4911              -23.72          32.75          18.08          50.04          2.309         -6.655          19.26          45.27          109.3           63.1          16.35
    0.5093              -23.73          32.74          18.07          50.02          2.279         -6.624          19.02          45.25          109.3          63.02          16.44
    0.5275              -23.74          32.72          18.06          49.98          2.246          -6.59          18.76          45.24          109.4          62.92          16.54
    0.5457              -23.75           32.7          18.04          49.95          2.207          -6.55          18.45          45.22          109.4          62.81          16.65
    0.5639              -23.77          32.68          18.02          49.91          2.163         -6.504           18.1           45.2          109.5          62.69          16.78
    0.5821              -23.78          32.66           18.0          49.86          2.113         -6.452           17.7          45.17          109.5          62.54          16.94
    0.6003               -23.8          32.63          17.97           49.8          2.054         -6.391          17.23          45.14          109.6          62.38          17.11
    0.6184              -23.82           32.6          17.94          49.73          1.985         -6.319          16.69          45.11          109.7          62.18          17.32
    0.6366              -23.85          32.56          17.91          49.66          1.903         -6.235          16.04          45.07          109.8          61.95          17.56
    0.6548              -23.88          32.51          17.87          49.56          1.806         -6.135          15.27          45.02          109.9          61.67          17.85
     0.673              -23.92          32.45          17.82          49.45           1.69         -6.015          14.35          44.97          110.1          61.34           18.2
    0.6912              -23.96          32.39          17.76          49.32           1.55          -5.87          13.24           44.9          110.3          60.94          18.62
    0.7094              -24.02           32.3          17.69          49.16          1.379         -5.692          11.88          44.82          110.5          60.46          19.14
    0.7276              -24.09           32.2           17.6          48.95          1.167         -5.473           10.2          44.72          110.8          59.85          19.77
    0.7458              -24.17          32.07          17.49           48.7         0.9037           -5.2          8.108          44.59          111.1           59.1          20.56
     0.764              -24.28          31.91          17.35          48.39         0.5714         -4.856          5.472          44.43          111.6          58.16          21.56
    0.7822              -24.42          31.71          17.17          47.98         0.1491         -4.419          2.121          44.23          112.1          56.95          22.82
    0.8003              -24.59          31.45          16.94          47.47        -0.3914         -3.859         -2.169          43.97          112.8          55.42          24.44
    0.8185              -24.82          31.12          16.65           46.8         -1.085         -3.141         -7.673          43.63          113.7          53.44          26.52
    0.8367               -25.1          30.69          16.28          45.96         -1.971         -2.223          -14.7           43.2          114.9          50.92          29.18
    0.8549              -25.46          30.15          15.81          44.89         -3.085          -1.07         -23.55          42.67          116.3          47.75          32.52
    0.8731               -25.9           29.5          15.23           43.6         -4.443         0.3364         -34.32          42.01          118.1          43.88          36.59
    0.8913              -26.41          28.74          14.57          42.09         -6.017          1.966         -46.81          41.26          120.2           39.4          41.31
    0.9095              -26.96          27.92          13.85          40.47         -7.721          3.731         -60.33          40.44          122.4          34.55          46.42
    0.9277              -27.51           27.1          13.13          38.84         -9.425          5.495         -73.85          39.61          124.6           29.7          51.53
    0.9459              -28.02          26.34          12.47          37.34          -11.0          7.125         -86.34          38.86          126.7          25.22          56.24
    0.9641              -28.46          25.69           11.9          36.04         -12.36          8.531         -97.12           38.2          128.5          21.35          60.31
    0.9822              -28.82          25.15          11.43          34.97         -13.47          9.684         -106.0          37.67          129.9          18.18          63.65
       1.0              -29.11          24.72          11.06          34.13         -14.36           10.6         -113.0          37.24          131.1          15.66          66.31
     1.019              -29.33          24.39          10.76          33.47         -15.05          11.32         -118.5          36.91          132.0          13.68          68.39
     1.037               -29.5          24.13          10.53          32.95         -15.59          11.88         -122.8          36.64          132.7          12.14          70.01
     1.055              -29.64          23.92          10.36          32.55         -16.01          12.32         -126.1          36.44          133.3          10.94          71.28
     1.073              -29.75          23.76          10.22          32.23         -16.35          12.66         -128.8          36.28          133.7          9.994          72.27
